<mxfile host="Electron" modified="2023-11-08T19:27:30.703Z" agent="Mozilla/5.0 (Windows NT 10.0; Win64; x64) AppleWebKit/537.36 (KHTML, like Gecko) draw.io/21.5.1 Chrome/112.0.5615.204 Electron/24.6.0 Safari/537.36" etag="y9FrRDR3kJ0AD2P_T--U" version="21.5.1" type="device">
  <diagram name="Page-1" id="SplO8h5gbRyYTl8_z3Zm">
    <mxGraphModel dx="903" dy="904" grid="1" gridSize="10" guides="1" tooltips="1" connect="1" arrows="1" fold="1" page="1" pageScale="1" pageWidth="827" pageHeight="1169" math="0" shadow="0">
      <root>
        <mxCell id="0" />
        <mxCell id="1" parent="0" />
        <mxCell id="jNNwkm4Pt1Z7b0PhEC-a-1" value="FaÃ§ade" style="rounded=0;whiteSpace=wrap;html=1;" vertex="1" parent="1">
          <mxGeometry x="280" y="490" width="250" height="30" as="geometry" />
        </mxCell>
        <mxCell id="jNNwkm4Pt1Z7b0PhEC-a-2" value="Services / Application (Interfaces)" style="rounded=0;whiteSpace=wrap;html=1;" vertex="1" parent="1">
          <mxGeometry x="280" y="530" width="250" height="30" as="geometry" />
        </mxCell>
        <mxCell id="jNNwkm4Pt1Z7b0PhEC-a-3" value="Services / Application (v1)" style="rounded=0;whiteSpace=wrap;html=1;" vertex="1" parent="1">
          <mxGeometry x="280" y="569.5" width="250" height="30" as="geometry" />
        </mxCell>
        <mxCell id="jNNwkm4Pt1Z7b0PhEC-a-4" value="ProductRepositoryInterface" style="rounded=0;whiteSpace=wrap;html=1;" vertex="1" parent="1">
          <mxGeometry x="280" y="610" width="250" height="30" as="geometry" />
        </mxCell>
        <mxCell id="jNNwkm4Pt1Z7b0PhEC-a-17" style="edgeStyle=orthogonalEdgeStyle;rounded=0;orthogonalLoop=1;jettySize=auto;html=1;" edge="1" parent="1" source="jNNwkm4Pt1Z7b0PhEC-a-5" target="jNNwkm4Pt1Z7b0PhEC-a-14">
          <mxGeometry relative="1" as="geometry" />
        </mxCell>
        <mxCell id="jNNwkm4Pt1Z7b0PhEC-a-5" value="ProductMemory&lt;br&gt;Repository" style="rounded=0;whiteSpace=wrap;html=1;" vertex="1" parent="1">
          <mxGeometry x="280" y="650" width="120" height="40" as="geometry" />
        </mxCell>
        <mxCell id="jNNwkm4Pt1Z7b0PhEC-a-16" style="edgeStyle=orthogonalEdgeStyle;rounded=0;orthogonalLoop=1;jettySize=auto;html=1;" edge="1" parent="1" source="jNNwkm4Pt1Z7b0PhEC-a-6" target="jNNwkm4Pt1Z7b0PhEC-a-15">
          <mxGeometry relative="1" as="geometry" />
        </mxCell>
        <mxCell id="jNNwkm4Pt1Z7b0PhEC-a-6" value="ProductDynamoDB&lt;br&gt;Repository" style="rounded=0;whiteSpace=wrap;html=1;" vertex="1" parent="1">
          <mxGeometry x="410" y="650" width="120" height="40" as="geometry" />
        </mxCell>
        <mxCell id="jNNwkm4Pt1Z7b0PhEC-a-8" value="Models / Entities" style="rounded=0;whiteSpace=wrap;html=1;" vertex="1" parent="1">
          <mxGeometry x="10" y="610" width="250" height="30" as="geometry" />
        </mxCell>
        <mxCell id="jNNwkm4Pt1Z7b0PhEC-a-9" value="ProductImageInterface" style="rounded=0;whiteSpace=wrap;html=1;" vertex="1" parent="1">
          <mxGeometry x="550" y="610" width="250" height="30" as="geometry" />
        </mxCell>
        <mxCell id="jNNwkm4Pt1Z7b0PhEC-a-18" style="edgeStyle=orthogonalEdgeStyle;rounded=0;orthogonalLoop=1;jettySize=auto;html=1;" edge="1" parent="1" source="jNNwkm4Pt1Z7b0PhEC-a-10" target="jNNwkm4Pt1Z7b0PhEC-a-13">
          <mxGeometry relative="1" as="geometry" />
        </mxCell>
        <mxCell id="jNNwkm4Pt1Z7b0PhEC-a-10" value="ProductFolder&lt;br&gt;Repository" style="rounded=0;whiteSpace=wrap;html=1;" vertex="1" parent="1">
          <mxGeometry x="550" y="650" width="120" height="40" as="geometry" />
        </mxCell>
        <mxCell id="jNNwkm4Pt1Z7b0PhEC-a-19" style="edgeStyle=orthogonalEdgeStyle;rounded=0;orthogonalLoop=1;jettySize=auto;html=1;" edge="1" parent="1" source="jNNwkm4Pt1Z7b0PhEC-a-11" target="jNNwkm4Pt1Z7b0PhEC-a-12">
          <mxGeometry relative="1" as="geometry" />
        </mxCell>
        <mxCell id="jNNwkm4Pt1Z7b0PhEC-a-11" value="ProductS3&lt;br&gt;Repository" style="rounded=0;whiteSpace=wrap;html=1;" vertex="1" parent="1">
          <mxGeometry x="680" y="650" width="120" height="40" as="geometry" />
        </mxCell>
        <mxCell id="jNNwkm4Pt1Z7b0PhEC-a-12" value="Bucket S3" style="sketch=0;points=[[0,0,0],[0.25,0,0],[0.5,0,0],[0.75,0,0],[1,0,0],[0,1,0],[0.25,1,0],[0.5,1,0],[0.75,1,0],[1,1,0],[0,0.25,0],[0,0.5,0],[0,0.75,0],[1,0.25,0],[1,0.5,0],[1,0.75,0]];outlineConnect=0;fontColor=#232F3E;gradientColor=#60A337;gradientDirection=north;fillColor=#277116;strokeColor=#ffffff;dashed=0;verticalLabelPosition=bottom;verticalAlign=top;align=center;html=1;fontSize=12;fontStyle=0;aspect=fixed;shape=mxgraph.aws4.resourceIcon;resIcon=mxgraph.aws4.s3;" vertex="1" parent="1">
          <mxGeometry x="701" y="751.5" width="78" height="78" as="geometry" />
        </mxCell>
        <mxCell id="jNNwkm4Pt1Z7b0PhEC-a-13" value="Local Folder" style="sketch=0;pointerEvents=1;shadow=0;dashed=0;html=1;strokeColor=none;fillColor=#505050;labelPosition=center;verticalLabelPosition=bottom;verticalAlign=top;outlineConnect=0;align=center;shape=mxgraph.office.concepts.folder;" vertex="1" parent="1">
          <mxGeometry x="565" y="750" width="90" height="81" as="geometry" />
        </mxCell>
        <mxCell id="jNNwkm4Pt1Z7b0PhEC-a-14" value="Memory" style="shape=cylinder3;whiteSpace=wrap;html=1;boundedLbl=1;backgroundOutline=1;size=15;verticalAlign=top;labelPosition=center;verticalLabelPosition=bottom;align=center;" vertex="1" parent="1">
          <mxGeometry x="310" y="752.5" width="60" height="80" as="geometry" />
        </mxCell>
        <mxCell id="jNNwkm4Pt1Z7b0PhEC-a-15" value="DynamoDb" style="sketch=0;points=[[0,0,0],[0.25,0,0],[0.5,0,0],[0.75,0,0],[1,0,0],[0,1,0],[0.25,1,0],[0.5,1,0],[0.75,1,0],[1,1,0],[0,0.25,0],[0,0.5,0],[0,0.75,0],[1,0.25,0],[1,0.5,0],[1,0.75,0]];outlineConnect=0;fontColor=#232F3E;gradientColor=#4D72F3;gradientDirection=north;fillColor=#3334B9;strokeColor=#ffffff;dashed=0;verticalLabelPosition=bottom;verticalAlign=top;align=center;html=1;fontSize=12;fontStyle=0;aspect=fixed;shape=mxgraph.aws4.resourceIcon;resIcon=mxgraph.aws4.dynamodb;" vertex="1" parent="1">
          <mxGeometry x="431" y="752.5" width="78" height="78" as="geometry" />
        </mxCell>
        <mxCell id="jNNwkm4Pt1Z7b0PhEC-a-20" value="" style="shape=flexArrow;endArrow=classic;html=1;rounded=0;" edge="1" parent="1">
          <mxGeometry width="50" height="50" relative="1" as="geometry">
            <mxPoint x="820" y="690" as="sourcePoint" />
            <mxPoint x="820" y="440" as="targetPoint" />
          </mxGeometry>
        </mxCell>
        <mxCell id="jNNwkm4Pt1Z7b0PhEC-a-22" value="Low Level (Low Couple)" style="text;html=1;align=center;verticalAlign=middle;resizable=0;points=[];autosize=1;strokeColor=none;fillColor=none;" vertex="1" parent="1">
          <mxGeometry x="830" y="670" width="150" height="30" as="geometry" />
        </mxCell>
        <mxCell id="jNNwkm4Pt1Z7b0PhEC-a-23" value="High Level (High Couple)" style="text;html=1;align=center;verticalAlign=middle;resizable=0;points=[];autosize=1;strokeColor=none;fillColor=none;" vertex="1" parent="1">
          <mxGeometry x="825" y="460" width="160" height="30" as="geometry" />
        </mxCell>
        <mxCell id="jNNwkm4Pt1Z7b0PhEC-a-29" style="edgeStyle=orthogonalEdgeStyle;rounded=0;orthogonalLoop=1;jettySize=auto;html=1;entryX=0.75;entryY=0;entryDx=0;entryDy=0;" edge="1" parent="1" source="jNNwkm4Pt1Z7b0PhEC-a-25" target="jNNwkm4Pt1Z7b0PhEC-a-1">
          <mxGeometry relative="1" as="geometry" />
        </mxCell>
        <mxCell id="jNNwkm4Pt1Z7b0PhEC-a-25" value="Console" style="image;aspect=fixed;html=1;points=[];align=center;fontSize=12;image=img/lib/azure2/general/Dev_Console.svg;labelPosition=center;verticalLabelPosition=top;verticalAlign=bottom;" vertex="1" parent="1">
          <mxGeometry x="423.5" y="380" width="87.5" height="70" as="geometry" />
        </mxCell>
        <mxCell id="jNNwkm4Pt1Z7b0PhEC-a-27" style="edgeStyle=orthogonalEdgeStyle;rounded=0;orthogonalLoop=1;jettySize=auto;html=1;entryX=0.25;entryY=0;entryDx=0;entryDy=0;" edge="1" parent="1" source="jNNwkm4Pt1Z7b0PhEC-a-26" target="jNNwkm4Pt1Z7b0PhEC-a-1">
          <mxGeometry relative="1" as="geometry" />
        </mxCell>
        <mxCell id="jNNwkm4Pt1Z7b0PhEC-a-26" value="Frontend" style="image;aspect=fixed;html=1;points=[];align=center;fontSize=12;image=img/lib/azure2/general/Browser.svg;labelPosition=center;verticalLabelPosition=top;verticalAlign=bottom;" vertex="1" parent="1">
          <mxGeometry x="300" y="381" width="86.25" height="69" as="geometry" />
        </mxCell>
      </root>
    </mxGraphModel>
  </diagram>
</mxfile>
